<?xml version="1.0" encoding="UTF-8"?>
<svg version="1.1" viewBox="0 0 1812 1504" width="1280" height="1280" xmlns="http://www.w3.org/2000/svg">
<path transform="translate(855,106)" d="m0 0h53l44 3 30 4 36 6 27 6 32 9 36 12 26 10 27 12 19 10 19 9 10 6 17 10 16 10 12 8 17 12 16 12 11 9 13 11 11 9 17 16 24 24 7 8 14 15 9 11 11 13 8 11 14 20 12 18 9 15 14 25 8 16 13 27 11 27 12 36 8 29 9 40 5 32 3 26 3 40v57l-4 44-6 41-6 31-8 32-9 30-10 29-12 29-14 30-12 22-16 27-15 22-14 20-13 16-8 10-11 12-7 8-12 13-20 20-8 7-11 10-10 8-18 14-18 13-20 14-25 15-25 14-19 10-24 11-30 12-30 11-33 10-41 10-31 6-36 5-36 3-21 1h-51l-44-4-32-4-29-5-24-6-38-11-37-13-29-12-22-10-19-10-20-11-21-13-16-11-14-10-19-14-8-7-13-11-14-12-14-14-6-5-7-8-10-10-7-8-11-13-11-14-16-21-10-15-11-17-13-21-14-26-9-17-13-29-8-19-10-26 1-9 12-50 12-37 5-11h3l7 29 9 30 10 28 10 25 8 18 16 32 11 20 12 19 10 15 14 19 11 14 13 15 14 15 12 13 17 16 10 9 11 9 18 14 19 13 18 12 15 9 18 10 16 8 17 8 34 14 36 12 41 11 36 7 30 4 22 2 51 1 35-1 34-3 32-5 40-8 22-6 48-15 38-16 29-14 21-12 40-25 14-10 16-13 10-8 15-13 12-11 3-1 1-3 22-22 9-11 11-12 12-16 14-19 15-24 18-32 12-24 15-37 12-36 9-34 8-38 5-36 3-31 1-19v-52l-2-26-4-29-6-27-9-31-9-25-16-34-10-17-8-12-14-19-13-15-14-15-11-9-10-8-21-12-9-4-4 1-13 11-18 13-18 11-16 6-15 3h-28l-17-1-49-1 2-6 8-14 10-15 9-10 14-14 15-11 16-9 14-5 18-4 6-1h24l20 3 16 5 21 9 20 12 11 8 17 13 3 2-7-11-11-16-21-27-12-14-11-12-7-8-22-22-10-6-24-9-21-6-27-5-24-3-14-1h-44l-21 1 1 11v12l-3 25-6 25-6 15-9 15-9 11-8 8-17 12-18 8-50 18-44 18-27 11-59 26h-3v-7l6-25 6-18 12-28 12-22 13-21 13-18 14-17 14-15 12-12 8-7 17-14 20-13 15-9 23-11 33-11 25-6 2-1 21-2 23-1h18l31 2 16 2-20-12-14-8-16-8-23-11-27-11-30-10-12-3h-28l-42 4-34 6-36 9-31 11-29 12-25 11-25 13-19 12-19 13-19 14-4 4 6 36 2 17 1 17v12l-2 23-5 25-9 27-8 18-11 20-15 23-9 14-11 16-14 19-12 18-13 21-13 23-6 11h-2l-8-16-7-19-6-21-6-31-2-19-1-31 1-22 4-28 5-23 10-32 11-24 11-21 13-21 12-17 7-9 13-15 6-7h2l2-4 14-14 8-7 13-11 9-7 24-16 19-12 18-10 16-9 26-11 19-8 22-8-1-1-29 1-31 3-37 6-32 7-42 13-30 10-30 13-28 14-28 16-19 12-16 11-19 14-17 14-8 7-10 9-7 6 2 10 10 32 6 28 4 34v38l-3 26-5 23-7 24-7 19-12 25-10 18-12 19-13 17-9 12-9 10-7 8-15 16-32 32-7 8-11 12-13 17-10 13-10 15-15 25-12 23-14 29-9 24-4 10-2-2-8-49-3-24-2-30v-51l2-26 5-39 7-39 8-34 12-40 10-28 13-31 17-36 14-26 15-24 11-17 9-13 16-21 11-14 9-10 7-8 9-10 4-5h2l2-4 8-7 17-17 8-7 14-12 13-11 13-10 20-15 13-9 25-16 18-11 28-15 23-11 23-9 38-14 34-10 37-8 41-7 31-3z" fill="#4E7872"/>
<path transform="translate(974,527)" d="m0 0h236l11 8 15 14 16 15 10 9 8 7 15 14 10 9 13 12 11 9 9 9 8 7 13 12 20 18 16 15 11 9 8 8 6 5v1h-68l1 4-1 306-6 8-12 18-21 28-11 13-9 10-15 16-11 11-3 1v-14h-79l1 4-1 73-10 7-21 12-27 14-32 15-6 2-1-28v-386l1-113h-204v563l-1 1h-13l-16-1-1-231-6-7-8-7-12-11-16-15-10-9-13-12-8-7-24-22-11-10-8-7-24-22-11-9-7-7-8-7-11-11-8-7-12-11-8-7-4-3-5 1-11 11-8 7-14 13-8 7-11 11-8 7-10 9-11 9-7 7-8 7-11 10-11 9-10 10-8 7-9 9-8 7-11 10-8 7-10 9-12 11-4 1-9-12-6-12 11-11v-218l1-2h153l1 3-1 76 11-8 14-14 11-9 9-8 17-1h200l1-104-72-1 6-7 14-12 17-16 4-2v-2l8-7 15-13 8-8 11-9 15-14 8-7 15-14 8-7 10-9 12-11 10-9 14-12 14-14 9-7zm3 36-8 7-12 11-8 7-3 2v2l-4 2-8 8-8 7-12 11-10 9-12 11-20 18-13 12-7 6-2 4h255l-3-5-8-8-11-9-14-14-8-7-12-11-10-9-14-13-8-7-12-11-14-12-12-11zm199 218-1 62 1 16h78v-78zm-717 21v162l5-2 15-13 7-6v-2l4-2 9-8 1-14v-115zm718 142-1 1v77l77 1 1-1v-77l-10-1z" fill="#4E7872"/>
<path transform="translate(1534,804)" d="m0 0h1v10l-5 39-7 38-7 29-9 32-12 35-12 29-14 30-12 22-16 27-15 22-14 20-13 16-8 10-11 12-7 8-12 13-20 20-8 7-11 10-10 8-18 14-18 13-20 14-25 15-25 14-19 10-24 11-30 12-30 11-33 10-41 10-31 6-36 5-36 3-21 1h-51l-44-4-32-4-29-5-24-6-38-11-37-13-29-12-22-10-19-10-20-11-21-13-16-11-14-10-19-14-8-7-13-11-14-12-14-14-6-5-7-8-10-10-7-8-11-13-11-14-16-21-10-15-11-17-13-21-14-26-9-17-13-29-8-19-10-26 1-9 12-50 12-37 5-11h3l7 29 9 30 10 28 10 25 8 18 16 32 11 20 12 19 10 15 14 19 11 14 13 15 14 15 12 13 17 16 10 9 11 9 18 14 19 13 18 12 15 9 18 10 16 8 17 8 34 14 36 12 41 11 36 7 30 4 22 2 51 1 35-1 34-3 32-5 40-8 22-6 48-15 38-16 29-14 21-12 40-25 14-10 16-13 10-8 15-13 12-11 3-1 1-3 22-22 9-11 11-12 12-16 14-19 15-24 18-32 12-24 11-27 5-1 2-2 2-6h2l2-5 4-9 5-12 8-20 1-3 2-1 2-5 4 1v2l8-1 3-1v-2l9-2 1-3 3-3 5 3v-2h2v-5l4-1-2-2 2-2 1-4 4 1 3 2 4-8 1 1v-6l1-2h3l1-6h2l1-5 5-5 1-7 2-5 7-2-1-7 2-12h3z" fill="#185452"/>
<path transform="translate(1341,908)" d="m0 0h1v110l-6 8-12 18-21 28-11 13-9 10-15 16-11 11-3 1v-14h-79l1 4-1 73-10 7-21 12-27 14-32 15-6 2-1-28v-193l3-4-1-11h2l1-7 3-19 3-9 4 2 1 3 3 2 6-1 3-1 1 5 4 1 1-6 9-1 3 1v3l4-2 3-7 10-1 5 1 1-5 2-4h3l1-2 1 5h2l-1-3 6-4 7-1 5-3h2v76h12l7 3 10 1h49l5-1 1-11v-11l5-21 1-2h8l4-1 3-3 12-2 2 1 3-1v-3h10v-2l9-3 1-3h2l1-2 5-2h4l3 8 3 5 1-2h2l1-3v-16l1-26v-9z" fill="#185452"/>
<path transform="translate(580,1033)" d="m0 0h108l1 3v105l-2 1h-104l-4-1v-107z" fill="#195552"/>
<path transform="translate(873,888)" d="m0 0h1l1 16v368l-1 1h-13l-16-1-1-231-6-7-8-7-12-11-16-15-10-9-13-12-8-7-12-11-7-6v-2l4 2 13 10v2h2l3 3 10 1-1-4 6-1 4 3v2l9 2v3l7-3 4 4v2h8l4 2 2-2 8-2 3-6 5-3h5v-3l3 1 3 3 5-3h2l-1-9 3-1 2-10 3-13 2-15 2-25z" fill="#195452"/>
<path transform="translate(855,106)" d="m0 0h53l44 3 30 4 36 6 27 6 32 9 36 12 26 10 27 12 15 8-1 2-11-3-8-2-2-2-14-5-3-2-18-5-13-6-8-2-11-4-15-5-10-4-6-2-16-4-5-2-10-1-11-2-1 2-9-1-3 1-5-2h-10v-2h-2l2 5 2 2-5-1-4-1-5 2-2 2-1-6-8-4-4 2 7 2 2 5 6 1h6l3 3-2 5-4 1h-14l-1 3-13 2-25-2-2-2-2 2h-6l-4-2-4 1-5-2-1 3-9-3-2-1-12 1-13 3-2 2-10-1-5-2-1-1h-5l-4 1-8-6v-7l-1-3-4-1v-2h-2v-2l4-1-7-2 1-3-5-7h-6l-8 7-6 2-12-2-4-1-4-3 24-4 31-3z" fill="#6E8B86"/>
<path transform="translate(937,780)" d="m0 0h80l-1 78-1 1h-76l-1-1z" fill="#4E7872"/>
<path transform="translate(938,1109)" d="m0 0h78v78h-78l-1-44v-32z" fill="#185452"/>
<path transform="translate(938,945)" d="m0 0h78l1 77-1 1h-78l-1-13z" fill="#195452"/>
<path transform="translate(457,905)" d="m0 0h1v55l-2 1-1 7 5 2 10-4 4-2 2-4 10-6 3-5 4-2 6 1v4h2l-1-4 3-5h4v3h2l1-4 5 1-2 5-3 7-3 4-3 1-3 3-3-1v5l-5 2-3 5v5l-15 14-8 7-10 9-8 7-13 12-4 1-9-12-6-12 9-9 6 1 2-4 4-10 1-5h2l1-8 1-1 1-7 3-2 3 1v-4l-3-2-1-5 3-5 1-9 2-13 4-16z" fill="#195452"/>
<path transform="translate(974,527)" d="m0 0h229l-1 4h-2v2l-6 1-2 1h-16l-5 1h-83l-7 1-4 1h-17l-30-2v-1l-31-2h-10l-3 1h-8l-5-2v-3l-2-1z" fill="#6D8B86"/>
<path transform="translate(627,160)" d="m0 0 1 2h5v2l6-1v5l-2 5 2 1v3l9-2 4 1v4l4-1 15-2 5-3 5 1 3 3 3-3h4v5l-3 5-5-1h-7l-4-3-6 1-13 2-10 3-6 2-10 2-10 4-9 4-5 1-5-2-7 4-12 1-2-2 2-2 4-3h6l3-8v-3l-5 2-3 3h-6l-2-4 34-18z" fill="#6D8B86"/>
<path transform="translate(331,744)" d="m0 0h2l-2 5-11 15-12 20-10 17-18 36-11 27-6 16-2-2-5-29v-9l2-2 1-11 2-4 1-10 6-3 3-6 5-4 6-3 3-1h2l4-4 6-2h4v-5l5-4h2l1-8 3-1v-6l5-6 4-4h2v-2h2l2-4z" fill="#1B5654"/>
<path transform="translate(846,167)" d="m0 0 4 2-1 3 1 5h6l-1 4h-2l2 7 8-4h4 6l3-4h2v-2h9v2l5 1 11-3 4-2 5-2 6 2 9 1 9-1 10-3h10l10-1 2-1 8 1 4-1 2 2-7 2h-3-3l-6 2-8 1-1 3-6-1-1-2-9 1-1 1-13 2-8 3h-6l-5 3h-7l-11 3-13 2h-15l-6 1h-6l-5 1-2-1v2l-6 2-5-6v-2l-3-1 4-2 2-7 6-4h2l2-7z" fill="#6D8B86"/>
<path transform="translate(941,948)" d="m0 0 9 1 7 4 7-2 12 1 3 3-2 7-5-1-9-2v5l-7 1v-3l-3 2 1 4-7 10-3 6-4-3-1-17 1-14z" fill="#4E7872"/>
<path transform="translate(311,865)" d="m0 0 5 1 2 4-1 5 1 4-3 1-2 5-4 8-1 7-3 4-2 10-2 3h-2v11l-3 5-1 4-4 1 1-9 8-32z" fill="#4E7872"/>
<path transform="translate(1301,253)" d="m0 0 8 6 13 11 11 10 8 7 4 5-4 1v-2l-5-2-10-6-9-5v-2l-6-2-4-2-4-4-3-2-2-9-1-3z" fill="#6D8B86"/>
<path transform="translate(907,116)" d="m0 0h15l4 1 6-1 10 3 1 3 2 1-3 3h-8l-1-5h-2l-1 6 2 1-3 1-5-5-2-1-7 1v-4l-5-1-2 1h-6l1-2z" fill="#4E7872"/>
<path transform="translate(1168,598)" d="m0 0 6 1 4-1 2 3 6-1 2-2 5 1 3 1h11l4 1v3l-7 2-4 1v-2h-20l-3-1h-19l2-1v-2z" fill="#6C8A85"/>
<path transform="translate(1037,176)" d="m0 0h9l13 4v2l5 1 2 1v2l-10-2-8-2h-39l3-2 13-3h7z" fill="#718E8A"/>
<path transform="translate(1084,177)" d="m0 0 4 1 5-1 6 5 3 1v2l4 1 6 4v4h-2v-2l-8-1-1-4h-9l-11-3-3-2v-3z" fill="#6D8B86"/>
<path transform="translate(813,109)" d="m0 0 2 1-6 5-3 3-6 2-12-2-4-1-4-3 24-4z" fill="#718E89"/>
<path transform="translate(1211,1105)" d="m0 0 5 2h14l3-2h11l-1 2-1 1h12v1h-79v-1l10-2h20 4z" fill="#4D7771"/>
<path transform="translate(1102,242)" d="m0 0h10l-4 1-2 4-5 2h-11l-1-3h-4l-2 4-8-1-3 1-3-1v-2l12-3z" fill="#6E8C87"/>
<path transform="translate(1081,600)" d="m0 0 4 2h7l4 2-1 3-9 2-2-1v-2l-6 5h-5l-4-1-7-1v-2h4v-3l3 1 12-2z" fill="#6D8B86"/>
<path transform="translate(1026,589)" d="m0 0 11 1 3 4v6l-2-1-2 5-7-1v-3h-3l-1-9z" fill="#6D8B86"/>
<path transform="translate(1236,598)" d="m0 0h8l6 1 4 2v2l-7 3-7-3h-2l-1 3-8 2-7-4 3-2 6-1z" fill="#6D8B86"/>
<path transform="translate(1270,582)" d="m0 0 4 2 8 7 4 4-1 3-7-1-5-2-5 2h-3l1-4-2-2h6v-4z" fill="#6E8C87"/>
<path transform="translate(331,744)" d="m0 0h2l-2 5-11 15-11 18-1-4 2-6h2v-6l5-6 4-4h2v-2h2l2-4z" fill="#215A57"/>
<path transform="translate(1261,299)" d="m0 0 5 1 10 7 3 2v2l4 2 2 2-3 1-9-7-14-6z" fill="#718F8A"/>
<path transform="translate(1185,1106)" d="m0 0h20l3 3h-33v-1z" fill="#507973"/>
<path transform="translate(701,254)" d="m0 0m-1 1m-1 1m-2 1 2 1-3 5-4 2-10 10v-3zm-18 18 2 1-2 1z" fill="#6F908B"/>
<path transform="translate(1079,245)" d="m0 0h5l-1 5-8-1-3 1-3-1v-2z" fill="#698983"/>
<path transform="translate(1536,739)" d="m0 0 2 2v20l-2 2-1-11z" fill="#185452"/>
<path transform="translate(955,121)" d="m0 0 3 1 1 5h-5v-2l-9-1 1-2z" fill="#4E7872"/>
<path transform="translate(971,538)" d="m0 0 13 1 4 1-1 2h-10l-7-2z" fill="#6D8B86"/>
<path transform="translate(1271,373)" d="m0 0 11 1 4 2h-2v2l-8-1z" fill="#708E89"/>
<path transform="translate(1273,305)" d="m0 0 6 4v2l4 2 2 2-3 1-9-7-2-2z" fill="#75918C"/>
<path transform="translate(741,162)" d="m0 0 10 1v2h-8l-1 3-4-1z" fill="#6D8B86"/>
<path transform="translate(990,171)" d="m0 0v3l-3 3-4-1-1-3 7-1z" fill="#6D8B86"/>
<path transform="translate(842,161)" d="m0 0h2l-1 3z" fill="#E1E7E6"/>
</svg>
