<?xml version="1.0" encoding="UTF-8"?>
<svg version="1.1" viewBox="0 0 1348 1384" width="1280" height="1280" xmlns="http://www.w3.org/2000/svg">
<path transform="translate(618,58)" d="m0 0h72l39 3 30 4 36 6 31 7 28 8 49 17 24 10 48 23 24 14 15 9 30 20 17 12 16 13 22 18 13 12 10 9 19 19 7 8 15 16 7 8 13 16 14 19 14 20 11 17 11 19 10 18 17 34 13 31 11 31 12 43 8 38 6 39 4 51v68l-4 43-5 33-7 36-9 36-8 26-10 28-14 34-18 36-13 23-11 18-16 23-13 18-11 14-13 15-10 11-7 8-34 34-11 9-14 12-17 13-18 13-27 18-13 8-28 16-16 8-25 12-32 13-34 12-29 9-38 10-47 8-24 3-40 3-21 1h-44l-22-2-43-4-39-6-21-5-38-11-36-12-26-10-33-15-19-10-22-12-24-15-17-12-18-13-13-10-10-9-11-9-13-12-17-16-8-8-7-8-12-13-9-11-12-15-12-16-15-22-14-22-12-21-15-28-12-25-16-38-6-16v-8l15-60 14-40h4l10 38 7 22 11 32 12 29 17 35 12 22 13 21 8 12 12 17 10 13 11 13 9 11 8 8 7 8 14 15 8 7 12 11 11 9 15 12 18 13 13 9 22 14 22 12 21 11 32 14 26 10 25 8 38 10 29 6 34 5 32 3h5l2-4 1 5 65-1 40-3 28-4 37-7 32-8 29-9 26-9 24-11 17-7 22-11 22-13 16-10 18-11 16-12 11-8 17-14 11-10 16-14 7-8 4-4h2v-2h2l2-4 8-8 9-11 7-7 13-17 12-16 8-12 15-25 16-29 12-25 11-27 9-25 8-28 11-45 4-22 5-39 2-23 1-20v-45l-2-29-3-23-6-28-12-41-7-19-11-24-9-17-11-18-14-19-9-11-9-10-7-8-11-11-14-11-16-9-15-7-4 1-16 13-19 13-13 8-19 7-8 2h-39l-16-1h-44l1-6 10-18 10-14 9-10 9-9 11-9 14-9 16-8 13-4 17-3h28l23 4 19 7 16 7 20 13 19 14 7 5-6-10-12-17-14-18-8-10-10-11-9-11-14-14-7-8-12-11-12-6-33-11-23-5-38-5-18-1h-28l-21 1-8 1v25l-3 24-5 21-5 13-9 17-10 13-12 11-16 11-18 7-39 14-28 11-19 8-34 14-23 10-26 11-7 4h-5v-8l6-26 7-19 10-23 12-23 11-18 11-16 13-16 9-11 7-8h2l2-4 8-8 8-7 14-12 17-12 17-11 16-8 19-9 27-9 29-7 18-2 18-1h34l31 3 7 1-11-7-18-11-26-13-20-9-27-11-24-8-15-4h-24l-44 4-35 6-36 9-29 10-34 14-18 8-26 13-23 14-28 20-13 10-1 3 4 20 4 30 1 19v11l-2 25-5 25-10 29-8 17-16 27-14 22-13 18-9 13-10 14-12 18-12 20-9 16-7 13-3 1-9-17-8-24-6-24-5-27-2-27v-30l3-29 5-26 9-31 6-15 12-25 11-20 11-17 12-17 10-11 9-11 27-27 8-7 13-11 16-11 18-12 20-12 24-13 12-6 34-14 23-9-4-1-36 2-33 4-32 6-34 8-52 17-20 8-24 11-26 13-10 6-11 6-21 13-16 11-19 14-14 11-14 12-10 9-6 5 4 16 8 26 6 28 3 21 2 23v21l-4 35-6 26-6 20-9 24-10 20-14 24-15 22-10 13-8 10-10 11-7 8-37 37-7 8-5 6-5 5-10 11-10 13-13 18-10 15-14 24-8 15-13 28-9 21-7 18-2-1-6-35-4-27-3-37v-60l4-43 7-43 6-29 6-24 10-33 11-31 16-38 8-17 10-19 13-24 12-19 13-20 10-14 12-16 9-11 12-14 12-13 11-12 13-13 8-7 8-8 8-7 14-12 12-10 17-13 16-12 21-14 19-12 20-12 33-17 31-13 44-16 36-10 27-6 45-8z" fill="#AEC07C"/>
<path transform="translate(977,478)" d="m0 0 9 1 9 6 15 14 16 15 8 7 24 22 8 7 12 11 8 7 10 9 8 7 16 15 10 9 8 7 16 15 8 7 13 12 10 9 1 3h-67v293l-1 17-9 12-12 18-13 17-10 13-12 13-7 8-23 23-2-1v-13h-78l-1 77-5 4-20 12-22 12-27 13-14 6-5 3-3-1-1-35v-460l1-31h-204v554l-1 9-1 1h-18l-10-1-1-7-1-225-12-12-8-7-30-28-8-7-12-11-8-7-13-12-8-7-13-12-8-7-16-15-11-9-15-14-8-8-8-7-14-13-16-14-4-1v2l-8 7-9 9-8 7-14 13-8 7-8 8-8 7-15 13-13 12-8 7-11 10-11 9-12 12-8 7-9 9-11 9-7 7-8 7-7 7-11 9-5 2-9-11-6-12 2-4 9-8v-218l1-2h153l1 3-1 76 6-4 12-11 9-9 11-9 7-6 6-1h90l121 1v-105h-71l2-5 14-12 13-12 15-14 10-9 11-9 8-8 8-7 14-12 17-16 20-18 12-11 30-27 11-11 13-10 2-1zm-225 37-15 15-11 9-8 8-8 7-13 12-8 7-10 9-12 11-13 12-12 11-8 7-8 8v1h254l-2-5-10-9-13-12-16-15-8-7-13-12-10-9-12-11-10-9-12-11-8-7-7-6-4-4zm200 218v78h76l2-1v-77zm-717 21v163l5-3 15-13 8-8 11-9 2-5v-124l-1-1zm717 142v78h78v-77l-8-1z" fill="#AEC07C"/>
<path transform="translate(355,985)" d="m0 0h109l1 1v107l-1 1h-108l-1-1z" fill="#AEC07C"/>
<path transform="translate(714,731)" d="m0 0h62l16 1v79h-78l-1-35v-44z" fill="#AFC07D"/>
<path transform="translate(714,1060)" d="m0 0h77l1 1v78h-78l-1-7v-71z" fill="#AEC07C"/>
<path transform="translate(714,897)" d="m0 0h78l1 77-1 1h-78l-1-1v-75z" fill="#AEC07C"/>
<path transform="translate(619,112)" d="m0 0v3z" fill="#C2CF9C"/>
<path transform="translate(619,1342)" d="m0 0" fill="#AEC07C"/>
<path transform="translate(858,626)" d="m0 0" fill="#FEFEFE"/>
</svg>
