<?xml version="1.0" encoding="UTF-8"?>
<svg version="1.1" viewBox="0 0 1376 1400" width="1280" height="1280" xmlns="http://www.w3.org/2000/svg">
<path transform="translate(649,62)" d="m0 0h45l32 2 29 3 44 7 34 7 29 8 35 12 20 7 26 11 17 8 16 8 19 10 27 16 19 12 16 11 18 13 34 28 8 7 10 9 13 13 5 4 7 8 7 7 7 8 13 14 9 11 12 15 13 18 11 16 12 19 10 17 14 26 16 34 13 33 8 24 11 39 7 33 5 32 4 40 2 27v60l-4 43-6 41-7 35-8 31-11 35-14 37-12 27-11 22-9 16-13 22-16 24-11 15-8 11-11 14-9 10-9 11-15 16-27 27-8 7-12 10-28 22-19 13-13 9-19 12-23 13-16 9-16 8-32 14-29 11-38 13-42 11-34 7-41 6-38 3-18 1h-60l-55-5-46-7-24-6-41-12-29-10-28-11-30-14-27-14-27-16-22-15-17-12-19-14-7-7-11-9-10-9-12-11-25-25-7-8-12-14-11-14-14-18-14-20-10-16-12-19-16-29-14-28-7-16-13-31-6-16 1-10 15-60 12-34 3-5 3 3 7 30 9 30 8 23 11 28 14 29 8 16 12 23 16 26 12 17 13 17 14 17 11 12 7 8 7 7 7 8 17 16 10 9 11 9 13 10 18 13 21 14 25 15 29 15 27 12 23 9 22 8 32 9 23 6 35 7 31 4 24 2h82l36-3 32-5 43-9 29-8 37-12 30-13 18-8 26-13 25-15 13-8 11-7 16-11 14-11 16-13 11-10 8-7 10-9 6-7 8-7 11-12 7-8 10-11 12-16 14-19 12-19 11-19 6-11 10-19 11-23 13-33 8-24 11-41 7-33 5-32 4-39 2-49-2-38-4-33-5-27-9-31-7-21-9-22-8-16-11-20-12-18-12-16-13-15-12-13-10-9-13-10-17-10-13-6-4 1-13 11-14 10-15 10-14 7-17 5-6 1h-32l-14-1-49-1 1-5 13-22 9-12 5-6 8-7 8-8 14-10 18-10 15-5 22-4h21l22 3 21 7 21 10 14 9 17 12 12 9 3 2-10-16-10-14-14-18-11-13-12-14-14-15-21-21-8-5-27-10-28-7-23-4-32-3h-48l-18 1 1 12v11l-3 25-6 25-7 16-9 15-8 10-7 7-16 12-14 7-39 14-21 8-37 15-34 14-52 23-6 1v-7l6-25 6-18 14-32 13-23 12-19 9-12 11-14 9-10 7-8 16-16 11-9 13-11 26-17 23-12 19-8 26-8 23-6 20-2 21-1h22l37 3 10 2-11-8-20-12-22-11-34-15-29-11-27-8h-16l-29 2-31 4-27 5-36 9-32 11-26 11-29 13-23 12-19 12-16 11-18 13-8 7 6 37 2 18v41l-3 21-5 20-7 20-8 18-13 23-12 19-12 18-11 16-14 19-17 26-9 15-12 22-4 7-4-4-7-14-8-24-6-24-5-26-2-27v-27l3-31 6-30 8-27 6-16 11-23 13-23 10-15 11-16 12-14 9-10 4-5h2l2-4 14-14 8-7 14-12 8-6 13-9 17-11 18-11 32-17 25-11 31-12 8-2v-2h-13l-31 2-31 4-36 7-25 6-31 9-32 11-26 11-25 12-15 8-18 10-24 15-20 14-17 13-16 13-8 7-15 13-1 4 5 16 7 23 6 26 4 29 1 11v31l-4 33-6 25-11 33-8 18-14 26-12 19-13 18-11 14-11 12-7 8-5 6h-2l-2 4-35 35-7 8-12 13-10 13-12 16-14 21-12 20-12 23-12 25-10 25-5 13h-2l-8-49-4-35-2-34v-25l1-23 4-38 6-37 7-34 8-31 13-41 11-28 11-25 12-25 12-23 8-14 10-16 20-30 26-34 10-11 7-8 9-10 5-6h2l2-4h2l2-4 8-7 15-15 8-7 14-12 12-10 13-10 19-14 17-12 19-12 25-15 26-14 27-12 43-16 24-8 21-6 38-8 41-7 32-3z" fill="#6A574C"/>
<path transform="translate(761,483)" d="m0 0h236l7 4 15 14 10 9 12 11 20 18 12 11 10 9 12 11 10 9 8 7 15 14 8 7 20 18 13 12 8 7 12 11 10 8v2h-68l-1 310-6 7-16 24-14 18-11 14-14 15-11 12-14 14h-2v-14h-25l-54-1v79l-27 16-29 15-21 10-18 8-1-1-1-104 1-422-204-1v563l-4 2-26-1-1-232-8-8-8-7-10-9-8-8-8-7-14-13-8-7-10-9-12-11-10-9-12-11-20-18-12-11-11-9-17-16-7-7-8-7-14-13-8-7-5-4-5 3-15 15-8 7-11 10-8 7-9 9-8 7-10 9-8 7-30 27-11 9-10 10-8 7-11 11-8 7-10 9-8 7-7 7-11 9-3 3-4-1-10-14-4-8 2-4 9-8v-217l2-3h152l1 2v77l10-8 6-6h2l2-4h2l1-3 8-7 13-11h218v-106h-72l6-7 11-10 8-7 15-14 12-11 11-9 10-10 11-9 15-14 20-18 8-7 24-22 11-10 11-9 7-8 8-7 10-8zm4 35-8 7v2l-4 2-16 15-8 7-17 16-8 7-36 33-8 7-13 12-9 8v2h255l-2-4-9-9-8-7-10-9-8-8-8-7-14-13-8-7-15-14-8-7-13-12-8-7-10-9-5-5zm199 219-1 7v70l1 1h78v-78zm-717 21v163l5-2 7-7 8-7 5-5 13-11 3-5v-126zm717 142-1 3v75h79v-78z" fill="#6A574C"/>
<path transform="translate(367,989)" d="m0 0h109l1 1v107l-1 1h-108l-1-1z" fill="#6A574C"/>
<path transform="translate(725,736)" d="m0 0h79l1 2-1 76-1 1h-77l-1-39z" fill="#6A574C"/>
<path transform="translate(748,1064)" d="m0 0h40l16 1v77l-1 1h-77l-1-8v-68l1-2z" fill="#6B594E"/>
<path transform="translate(726,901)" d="m0 0h78l1 77-1 1h-79v-44z" fill="#6A574C"/>
<path transform="translate(511,137)" d="m0 0h2l-1 4z" fill="#A99E98"/>
<path transform="translate(750,630)" d="m0 0" fill="#FEFEFE"/>
<path transform="translate(630,117)" d="m0 0" fill="#FEFEFE"/>
</svg>
